<svg width="35" height="35" viewBox="0 0 35 35" fill="none" xmlns="http://www.w3.org/2000/svg">
<path d="M17.5033 5.7027e-08C19.0496 -0.000201815 20.5431 0.535562 21.6874 1.5021C22.8318 2.46863 23.5443 3.79611 23.6852 5.22388H33.3069C33.736 5.224 34.1491 5.37484 34.4626 5.64591C34.7762 5.91699 34.9668 6.28809 34.9961 6.68423C35.0253 7.08037 34.891 7.47201 34.6202 7.78003C34.3494 8.08804 33.9624 8.28946 33.5373 8.34358L33.3069 8.35821H31.9905L29.1295 31.3015C29.002 32.3199 28.4745 33.2595 27.6472 33.9414C26.8199 34.6234 25.7506 35.0001 24.6426 35H10.3579C9.24995 35.0001 8.18061 34.6234 7.35331 33.9414C6.52601 33.2595 5.99847 32.3199 5.87105 31.3015L3.00779 8.35821H1.69357C1.28432 8.35819 0.888918 8.22104 0.580488 7.97213C0.272057 7.72321 0.0714649 7.37937 0.0158066 7.00418L0 6.79104C1.72584e-05 6.41234 0.148227 6.04645 0.417222 5.76104C0.686216 5.47563 1.0578 5.29001 1.46325 5.23851L1.69357 5.22388H11.3153C11.4562 3.79611 12.1687 2.46863 13.3131 1.5021C14.4574 0.535562 15.9509 -0.000201815 17.5003 5.7027e-08V5.7027e-08ZM14.1131 13.0597C13.5599 13.0597 13.097 13.3836 13.0021 13.8099L12.9841 13.9749V26.7734L13.0021 26.9364C13.097 27.3627 13.5599 27.6866 14.1131 27.6866C14.6663 27.6866 15.1293 27.3627 15.2241 26.9364L15.2422 26.7713V13.977L15.2241 13.8099C15.1293 13.3857 14.6663 13.0597 14.1131 13.0597ZM20.8874 13.0597C20.3342 13.0597 19.8713 13.3836 19.7764 13.8099L19.7584 13.9749V26.7734L19.7764 26.9364C19.8713 27.3627 20.3342 27.6866 20.8874 27.6866C21.4406 27.6866 21.9035 27.3627 21.9984 26.9364L22.0165 26.7713V13.977L21.9984 13.8099C21.9035 13.3857 21.4406 13.0618 20.8874 13.0618V13.0597ZM17.5003 3.13433C16.1341 3.13433 14.9938 4.03284 14.7341 5.22388H20.2664C20.0045 4.03284 18.8664 3.13433 17.5003 3.13433V3.13433Z" fill="#FF572B"/>
</svg>
